HIERARCHY
ROOT root
{
	OFFSET 0.000000 0.000000 0.000000
	CHANNELS 6 Xposition Yposition Zposition Zrotation Yrotation Xrotation
	JOINT lhip
	{
		OFFSET 0.058581 -0.082280 -0.017664
		CHANNELS 3 Zrotation Yrotation Xrotation
		JOINT lknee
		{
			OFFSET 0.043451 -0.386469 0.008037
			CHANNELS 3 Zrotation Yrotation Xrotation
			JOINT lankle
			{
				OFFSET -0.014790 -0.426874 -0.037428
				CHANNELS 3 Zrotation Yrotation Xrotation
				JOINT ltoe
				{
					OFFSET 0.041054 -0.060286 0.122042
					CHANNELS 3 Zrotation Yrotation Xrotation
					End Site
					{
						OFFSET 0.000000 0.000000 0.000000
					}
				}
			}
		}
	}
	JOINT rhip
	{
		OFFSET -0.060310 -0.090513 -0.013543
		CHANNELS 3 Zrotation Yrotation Xrotation
		JOINT rknee
		{
			OFFSET -0.043257 -0.383688 -0.004843
			CHANNELS 3 Zrotation Yrotation Xrotation
			JOINT rankle
			{
				OFFSET 0.019056 -0.420046 -0.034562
				CHANNELS 3 Zrotation Yrotation Xrotation
				JOINT rtoe
				{
					OFFSET -0.034840 -0.062106 0.130323
					CHANNELS 3 Zrotation Yrotation Xrotation
					End Site
					{
						OFFSET 0.000000 0.000000 0.000000
					}
				}
			}
		}
	}
	JOINT lowerback
	{
		OFFSET 0.004439 0.124404 -0.038385
		CHANNELS 3 Zrotation Yrotation Xrotation
		JOINT upperback
		{
			OFFSET 0.004488 0.137956 0.026820
			CHANNELS 3 Zrotation Yrotation Xrotation
			JOINT chest
			{
				OFFSET -0.002265 0.056032 0.002855
				CHANNELS 3 Zrotation Yrotation Xrotation
				JOINT lowerneck
				{
					OFFSET -0.013390 0.211636 -0.033468
					CHANNELS 3 Zrotation Yrotation Xrotation
					JOINT upperneck
					{
						OFFSET 0.010113 0.088937 0.050410
						CHANNELS 3 Zrotation Yrotation Xrotation
						End Site
						{
							OFFSET 0.000000 0.000000 0.000000
						}
					}
				}
				JOINT lclavicle
				{
					OFFSET 0.071702 0.114000 -0.018898
					CHANNELS 3 Zrotation Yrotation Xrotation
					JOINT lshoulder
					{
						OFFSET 0.122921 0.045205 -0.019046
						CHANNELS 3 Zrotation Yrotation Xrotation
						JOINT lelbow
						{
							OFFSET 0.255332 -0.015649 -0.022946
							CHANNELS 3 Zrotation Yrotation Xrotation
							JOINT lwrist
							{
								OFFSET 0.265709 0.012698 -0.007375
								CHANNELS 3 Zrotation Yrotation Xrotation
								End Site
								{
									OFFSET 0.000000 0.000000 0.000000
								}
							}
						}
					}
				}
				JOINT rclavicle
				{
					OFFSET -0.082954 0.112472 -0.023707
					CHANNELS 3 Zrotation Yrotation Xrotation
					JOINT rshoulder
					{
						OFFSET -0.113228 0.046853 -0.008472
						CHANNELS 3 Zrotation Yrotation Xrotation
						JOINT relbow
						{
							OFFSET -0.260127 -0.014369 -0.031269
							CHANNELS 3 Zrotation Yrotation Xrotation
							JOINT rwrist
							{
								OFFSET -0.269108 0.006794 -0.006027
								CHANNELS 3 Zrotation Yrotation Xrotation
								End Site
								{
									OFFSET 0.000000 0.000000 0.000000
								}
							}
						}
					}
				}
			}
		}
	}
}
MOTION
Frames: 11
Frame Time: 0.033333
0.054931 0.859570 0.582698 52.131815 2.160754 67.313504 13.656644 -3.736666 -76.562540 -1.233322 17.033263 123.001743 10.200654 -2.679398 -16.563840 0.000000 -0.000000 0.000000 -15.313217 -7.370379 -65.759556 -6.655173 -17.406221 115.706149 -2.794305 6.240874 -11.554063 0.000000 -0.000000 0.000000 11.633419 5.367205 57.286799 12.974802 4.415069 6.594760 8.852242 6.565155 -2.192495 -2.155236 -1.560189 -7.124021 -0.120680 -1.951536 -1.680272 -9.594064 -35.207200 -0.890070 -73.925383 -18.464717 11.205857 98.776440 -75.754688 -57.848218 -7.379531 -3.600848 2.810002 10.563220 46.821894 3.939215 65.547959 47.136419 9.373951 -143.066947 46.214731 -118.038841 41.551505 37.572304 -33.306723 
0.055887 0.860185 0.581841 52.140279 2.265782 67.455599 13.613521 -3.832192 -76.730293 -0.965432 17.014264 123.029327 10.402727 -2.832253 -16.299672 0.000000 -0.000000 0.000000 -15.728180 -7.595157 -65.794719 -6.825551 -17.748377 115.844409 -3.098865 6.263149 -11.336537 0.000000 -0.000000 0.000000 11.964870 5.568275 57.376868 13.227638 4.326343 6.988513 9.019395 6.550248 -2.099515 -2.115921 -1.620086 -6.556285 0.038069 -1.885293 -2.588709 -9.609238 -35.887937 -0.726961 -74.540366 -19.427581 11.269767 98.126651 -74.508292 -57.625357 -7.234912 -3.434876 2.267156 10.767279 47.265931 4.302279 66.833881 47.287397 10.455184 -144.215842 45.739599 -118.461460 41.088617 37.505835 -33.346057 
0.056860 0.860558 0.582156 52.062972 2.364277 67.643120 13.653628 -3.909739 -76.710856 -0.734105 16.963933 123.036020 10.402646 -3.062285 -16.486423 0.000000 -0.000000 0.000000 -15.834558 -7.567658 -65.827662 -7.092626 -17.803495 115.919661 -3.196698 6.315457 -11.501748 0.000000 -0.000000 0.000000 12.082322 5.794505 57.113042 13.615093 4.330630 7.775452 9.276051 6.455324 -1.986324 -2.035576 -1.711113 -5.775099 -0.074116 -1.771009 -3.590684 -10.052847 -36.102095 -0.697197 -75.301461 -20.501370 11.605908 97.549692 -72.927400 -57.926800 -9.345334 -2.562244 2.214828 12.391983 47.648606 5.338987 66.544768 48.348304 10.966001 -143.682839 45.910951 -118.799849 44.377487 38.080572 -32.061550 
0.057455 0.861129 0.582857 52.050217 2.618107 67.882496 13.681656 -3.953714 -76.835304 -0.484599 16.668232 123.025610 10.390381 -3.194830 -16.464200 0.000000 -0.000000 0.000000 -15.809369 -7.499485 -65.873669 -7.723428 -17.947369 115.918006 -3.461263 6.080236 -11.565792 0.000000 -0.000000 0.000000 12.371988 5.813870 57.121060 13.680732 4.496778 8.222803 9.414552 6.789023 -1.981880 -1.798788 -2.046877 -5.285500 0.245807 -1.823175 -4.297709 -9.986283 -36.571764 -1.022310 -76.395782 -21.185359 11.908255 97.274073 -72.115932 -57.529472 -10.666058 -1.653634 2.706671 12.661305 48.023954 5.849851 67.163597 48.483159 11.132927 -144.316235 45.455018 -119.397934 44.591578 38.327766 -32.386578 
0.058250 0.861694 0.583267 52.353801 2.973883 68.291614 13.628106 -4.223096 -77.278471 -0.177038 16.356791 123.045677 10.640521 -3.326254 -16.381937 0.000000 -0.000000 0.000000 -15.808554 -7.738872 -66.019213 -8.039811 -17.989419 115.921689 -3.710186 6.281704 -11.561604 0.000000 -0.000000 0.000000 12.766112 5.937056 56.963387 13.801620 4.578004 8.268747 9.772223 6.986058 -2.005973 -1.620202 -2.651192 -4.483883 0.618104 -1.429189 -4.945498 -9.687047 -37.591174 -1.031557 -77.272228 -21.814195 11.943620 97.871605 -71.389732 -57.972412 -11.977151 -1.145942 3.525510 12.040411 48.781219 6.152940 66.935662 48.942165 9.868254 -144.451839 44.693051 -119.743314 46.283671 39.345870 -31.916445 
0.058854 0.862127 0.583181 52.517692 3.158175 68.280674 13.675334 -4.436004 -77.326962 -0.129346 16.360705 123.124643 10.458296 -3.447784 -16.339029 0.000000 -0.000000 0.000000 -15.915271 -7.698382 -65.879996 -8.193601 -18.104715 115.964486 -3.756099 6.151171 -11.665330 0.000000 -0.000000 0.000000 12.917038 5.995317 56.774897 14.141617 4.513284 8.999849 9.800463 6.856707 -1.860327 -1.183754 -2.482980 -4.362630 0.581766 -1.893221 -4.853962 -9.586695 -37.724786 -1.339395 -77.447832 -22.550421 12.605837 98.490463 -70.661041 -58.540324 -13.176906 -0.520429 4.541755 13.102467 48.955201 6.243373 65.990957 50.097277 9.996371 -143.143825 45.024621 -118.943335 49.054900 40.133932 -30.608069 
0.059819 0.862537 0.582830 52.903985 3.355303 68.471122 13.731759 -4.843506 -77.620514 0.110983 16.344934 123.277984 10.592917 -3.583871 -16.285255 0.000000 -0.000000 0.000000 -16.134196 -7.941890 -65.833629 -8.386936 -18.177462 116.094351 -3.811965 6.316129 -11.864109 0.000000 -0.000000 0.000000 13.158183 6.022938 56.630814 14.329348 4.340091 9.198264 9.811598 6.837319 -2.190451 -0.831288 -3.080881 -3.040945 1.268734 -2.102490 -5.451390 -9.833913 -38.443119 -0.775671 -77.475045 -23.213611 12.592451 98.911870 -70.060194 -58.947180 -14.196555 -0.091592 5.473483 13.114144 49.427760 7.079994 65.166220 50.691611 8.981533 -142.728641 44.627780 -118.563485 49.880507 40.248730 -30.287218 
0.060589 0.862807 0.582986 53.113061 3.491778 68.594630 13.715912 -4.920337 -77.698221 0.279293 16.272826 123.285014 10.562995 -3.724291 -16.109342 0.000000 -0.000000 0.000000 -16.248280 -7.921709 -65.862807 -8.495246 -18.193135 116.153348 -3.891260 6.484362 -11.729456 0.000000 -0.000000 0.000000 13.267410 6.034885 56.778045 14.308472 4.353663 9.336642 9.858820 6.875529 -2.293888 -0.750820 -3.389643 -2.282599 1.559962 -1.844649 -5.694409 -9.940143 -38.823497 -0.873902 -77.749003 -23.671549 12.734658 98.952701 -69.582721 -59.101290 -15.365770 0.409813 5.735692 13.057765 49.665637 7.048934 64.982798 50.791604 8.677917 -142.462804 44.531108 -118.456150 50.582552 40.299450 -30.257334 
0.061120 0.863025 0.583074 53.202028 3.663311 68.684019 13.733080 -4.856649 -77.747451 0.403347 16.126004 123.315354 10.657274 -3.873287 -16.061108 0.000000 -0.000000 0.000000 -16.095634 -7.866658 -65.918848 -8.464961 -18.078237 116.169294 -4.028277 6.836880 -11.745764 0.000000 -0.000000 0.000000 13.418081 6.224779 57.120319 14.198807 4.359683 9.414261 9.982023 7.280980 -2.797049 -0.323083 -4.595707 -1.734167 2.551169 -2.497190 -6.093467 -9.642070 -39.844544 -0.681349 -78.292012 -24.036625 12.432456 99.209346 -69.133210 -59.042061 -15.744339 1.079796 5.865052 12.080311 50.320957 7.301651 64.887624 50.541601 7.036530 -143.180071 43.853687 -118.628650 49.778224 40.546343 -31.324289 
0.061499 0.863333 0.583364 53.367037 3.732793 68.692216 13.679528 -4.927168 -77.696153 0.529155 16.040808 123.305004 10.625170 -3.886686 -16.226125 0.000000 -0.000000 0.000000 -16.137577 -7.791231 -65.826176 -8.492015 -18.103101 116.153042 -4.193402 6.825997 -11.868216 0.000000 -0.000000 0.000000 13.448952 6.147684 57.008942 14.323315 4.238334 9.895797 9.921862 7.099582 -2.670678 -0.317391 -4.696787 -1.115355 2.633529 -2.916020 -6.325114 -9.967805 -39.988999 -0.784374 -78.008424 -24.741868 12.776558 98.856366 -68.541053 -58.802418 -16.871905 2.123822 6.748862 13.165111 50.399606 7.610913 64.304619 50.903451 7.273114 -142.313091 44.338351 -118.293666 50.583154 40.775454 -30.892867 
0.062095 0.863543 0.583695 53.507200 3.861359 68.739714 13.591331 -4.967080 -77.673242 0.598910 15.851060 123.324693 10.527453 -4.047545 -16.152952 0.000000 -0.000000 0.000000 -16.040456 -7.767868 -65.751993 -8.600987 -18.023094 116.113877 -4.197602 6.800831 -11.914735 0.000000 -0.000000 0.000000 13.620630 6.382725 57.102732 14.357487 4.293452 10.107779 10.062021 7.162726 -2.730562 0.005964 -5.159821 -0.927950 2.759361 -2.949014 -6.430345 -9.602236 -40.689742 -1.092565 -78.327407 -25.594999 12.940290 98.235358 -68.259048 -57.969207 -18.078532 3.227566 7.637922 12.645917 50.720124 7.434437 63.972215 50.897756 6.592241 -142.392372 43.864426 -118.439357 50.853049 40.932841 -31.419303 
